#define psymbol_width 24
#define psymbol_height 10

static char psymbol_bits[] = {
	0x00,0x00,0x00,
	0xFC,0xFF,0x3F,
	0x02,0x00,0x40,
	0xF9,0xC7,0x9F,
	0x01,0x80,0x8F,
	0xF9,0x07,0x82,
	0x01,0x80,0x8F,
	0xF9,0xC7,0x9F,
	0x02,0x00,0x40,
	0xFC,0xFF,0x3F,
};
